<svg version="1.1" id="Layer_1" xmlns="http://www.w3.org/2000/svg" xmlns:xlink="http://www.w3.org/1999/xlink" x="0px" y="0px" viewBox="0 0 160 160" style="enable-background:new 0 0 160 160;" xml:space="preserve" fill="white">
<path d="M2,43.5c7.4-5.2,14.4-9.8,20.9-15c7-5.6,12.3-12.6,15.9-20.9c1-2.3,2.3-3,4.7-3c24.2,0.1,48.5,0,72.7,0.2
	c1.4,0,3.5,1.1,4.1,2.2c7,15.3,19.1,25.4,33.4,33.4c1.3,0.7,2.6,1.5,4.1,2.3c-4.2,13.8-8.3,27.5-12.4,41.2
	c-3.6,11.9-7,23.8-10.8,35.6c-0.7,2.1-2.2,4.3-4,5.5c-15.9,10.7-31.9,21.1-47.8,31.8c-2.4,1.6-4,1.4-6.3-0.1
	c-15.9-10.6-31.9-21.1-47.8-31.7c-1.4-0.9-2.9-2.4-3.4-3.9C17.4,95.2,9.7,69.1,2,43.5z"></path>
</svg>