<svg version="1.1" id="Layer_1" xmlns="http://www.w3.org/2000/svg" xmlns:xlink="http://www.w3.org/1999/xlink" x="0px" y="0px" viewBox="0 0 160 160" style="enable-background:new 0 0 160 160;" xml:space="preserve" fill="white">
<g>
	<path d="M27.2,142.5c1.5-8,2.7-15.2,4.3-22.3c0.3-1.5,1.7-2.8,2.8-4c7.1-7.3,14.2-14.5,21.3-21.8c1.3-1.3,2.4-2.6,3.1-3.3
		c-8.9-9.5-17.5-18.7-26.2-28c-5.8,4-11,7.6-16.3,11.2c-0.6-0.3-1.1-0.5-1.7-0.8c0.7-3.5,1.1-7.2,2.2-10.6c0.8-2.7,2.6-5.1,3.6-7.7
		c1.4-3.5,6.6-6.5,1.2-11.1c-3.2-2.7-6-5.8-10.8-4.9c-0.9,0.2-1.9-0.1-2.9-0.1C5.3,24.3,14.2,16,29.5,17.5c-1,5.7,0.7,10.5,5.3,14.4
		c2.1,1.8,3.5,2.3,6,1c5.1-2.7,10.4-5.3,15.8-7.4c2.1-0.8,4.7-0.4,7-0.6c0.3,0.5,0.6,0.9,0.8,1.4c-3.5,5.1-7.1,10.1-10.9,15.6
		c9.2,8.4,18.4,16.7,27.4,24.9c7.5-7.2,16.5-15.9,25.7-24.8c-3.8-5.4-7.4-10.6-11.7-16.8c3.6,0,6.2-0.7,8.2,0.1
		c5.4,2.1,10.6,4.7,15.8,7.3c2.6,1.3,4.1,1.2,6.4-0.9c4.3-3.9,6.3-8.4,5-14c16.3-2.2,23.7,7.2,22,21.4c-5.3-0.4-10.1,0.5-14.1,5
		c-2.4,2.7-2.4,4.4-0.9,7.3c2.6,4.8,5,9.8,7,14.9c0.8,2.2,0.5,4.8,0.9,8.8c-6.5-4.5-11.7-8-17.5-12c-8.5,9.2-17,18.5-26,28.3
		c1.5,1.6,4.3,4.4,7,7.2c3.4,3.5,6.3,7.5,10.2,10.3c11.5,8.2,11.5,20.8,13.7,33.6c-8-1.5-15.4-2.9-22.8-4.5c-1.5-0.3-2.8-1.8-3.9-3
		c-8.1-8.6-16.1-17.3-24.6-26.4c-2.9,2.7-4.4,4.1-5.9,5.6c-4.3,4.2-9,8-12.7,12.7c-7.4,9.1-16.8,13.7-28.3,14.4
		C32.3,141.6,30.2,142,27.2,142.5z"></path>
</g>
</svg>