<svg version="1.1" id="Layer_1" xmlns="http://www.w3.org/2000/svg" xmlns:xlink="http://www.w3.org/1999/xlink" x="0px" y="0px" viewBox="0 0 150 150" style="enable-background:new 0 0 150 150;" xml:space="preserve" fill="white">
<g>
	<path d="M141.2,42.9c-6.5-16.3-18.4-30.4-33.3-39.7c-6.4,21.5-17.4,40.9-32.7,57.4c-15.2-16.3-26.4-36-32.8-57.4
		C27.1,12.8,14.9,27.4,8.6,44.2C3.8,56.5,2.2,69.8,3.5,82.9c13.5,8.9,27,18.4,38.8,29.5c9.6,9.1,15.1,20.9,16.2,34.1
		c11.1,0,22.1,0,33.2,0c1.1-13.1,6.6-25,16.2-34.1c11.8-11.1,25.3-20.6,38.8-29.5C148.1,69.3,146.3,55.6,141.2,42.9z M61.6,92.6
		c-4.5,5-11.6,6.7-18.1,5c-5.9-1.8-11.3-4.3-15.1-9.3C24.2,83,23,76.2,24.3,69.6c8.5-2.4,17.7-1.9,25.8,1.6
		c6.4,2.7,11.8,7.1,16,12.6C65.2,87.1,63.9,90.1,61.6,92.6z M124,84.9c-3.8,7.6-12.7,12.3-20.9,13.3c-9.2,0.7-16.9-5.5-19-14.3
		c4.3-5.7,10-10.3,16.6-12.9c8-3.3,16.9-3.6,25.2-1.3C126.9,74.9,126.5,80.2,124,84.9z"></path>
</g>
</svg>