<svg version="1.1" id="Layer_1" xmlns="http://www.w3.org/2000/svg" x="0px" y="0px" viewBox="0 0 250 300" style="enable-background:new 0 0 250 300;" xml:space="preserve" fill="white">
<g>
    <g>
        <path d="M204,117.2c-22.5,1.2-41.6,7.9-60.8,12.5c-9.2,22.1,10.4,51.3-17.4,68.5c-13.9-6.6-17.9-17-16.8-30.9
			c1-11.7,0.2-23.6,0.2-36.5c-20.4-6.6-40.4-11.2-63-14.6c0,13.2,0.5,24.4-0.2,35.4c-0.6,8.7,3.2,14,10.6,16.7
			c17.2,6.2,22.5,18.7,23,36.3c0.9,28.8,4,57.4,6.5,89.9c-25.3-18.2-44.5-37.6-64.7-55.9c-5-4.6-3.1-11.2-3.1-16.9
			c-0.1-38.2,2.2-76.6-0.6-114.5C14.3,59.7,51.6,20,95,7.6c49.8-14.3,102.8,8.5,128,53.7c5.8,10.5,9.2,21.4,9,33.8
			c-0.4,42.1-0.4,84.3,0,126.4c0.1,9.9-2.3,17.2-10.3,23.8c-18.2,15-35.4,31.2-57.3,50.9c2-30.6,4.2-56.3,5.2-81.9
			c0.8-21,2.8-40.4,27.2-48.3c11.2-3.6,6.5-14.4,7.1-22.3C204.5,135.3,204,126.8,204,117.2z"></path>
    </g>
</g>
</svg>