<svg version="1.1" id="Layer_1" xmlns="http://www.w3.org/2000/svg" xmlns:xlink="http://www.w3.org/1999/xlink" x="0px" y="0px" viewBox="0 0 150 150" style="enable-background:new 0 0 150 150;" xml:space="preserve" fill="white">
<path d="M16.7,2.1C26,1.9,35.4,2,44.7,2.1c0.1,8.2-0.1,16.3,0.1,24.4c4.8,0.1,9.7,0.1,14.5,0c0.1-7.8-0.1-15.7,0.1-23.5
	c10.3-0.1,20.7-0.1,31,0c0.1,7.8-0.1,15.7,0.1,23.5c4.8,0.1,9.7,0.1,14.5,0c0.1-8.2-0.1-16.3,0.1-24.4c9.3-0.1,18.7-0.1,28.1,0
	c0.1,39.9,0,79.8,0.1,119.7c-0.1,1.5,0.2,2.7-1,3.7c-15.1,15-36.5,23.6-58.2,23.5c-18.4-0.5-36.6-7-50.7-18.6
	c-2.2-1.9-4.7-3.7-6.4-6.1c-0.2-1.5-0.2-3-0.2-4.5C16.7,80.7,16.5,41.2,16.7,2.1L16.7,2.1z"></path>
</svg>