<svg version="1.1" id="Layer_1" xmlns="http://www.w3.org/2000/svg" xmlns:xlink="http://www.w3.org/1999/xlink" x="0px" y="0px" viewBox="0 0 160 160" style="enable-background:new 0 0 160 160;" xml:space="preserve" fill="white">
<g>
	<path d="M3.2,43.7c7.3-5.2,14.2-9.6,20.7-14.8C30.7,23.4,36,16.5,39.5,8.3c1-2.3,2.3-2.9,4.7-2.9c23.9,0.1,47.8,0,71.7,0.1
		c1.3,0,3.4,0.8,3.8,1.8c7.2,15.9,19.7,26.2,34.6,34.1c0.8,0.4,1.5,0.9,2.5,1.5c-4.1,13.6-8.1,27.1-12.2,40.6
		c-3.5,11.7-6.9,23.4-10.6,35.1c-0.6,2-2.2,4.2-3.9,5.4c-15.6,10.6-31.5,20.9-47.1,31.4c-2.4,1.6-4,1.4-6.2-0.1
		c-15.7-10.5-31.5-20.8-47.2-31.3c-1.4-0.9-2.9-2.3-3.3-3.8C18.4,94.7,10.8,69,3.2,43.7z M78.6,95.9c0.8,0,1.7-0.1,2.5-0.1
		c4.3,4.8,9,9.4,12.9,14.5c5.6,7.2,13.8,6.5,21.8,8.3c-1.7-8.6-1.6-16.7-8.9-22.5c-4.8-3.7-8.7-8.6-11.9-11.9
		c6.1-6.8,11.8-13.1,17.5-19.5c3.9,2.7,7.4,5.1,11.9,8.2c-0.3-3-0.1-4.7-0.6-6.1c-1.2-3.2-2.5-6.3-4.3-9.2c-1.8-2.8-1.7-5,1.2-6.6
		c2.7-1.5,5.6-2.5,8.6-3.9c0.7-9.5-5.2-15.2-14.8-13.3c-0.1,1.1-0.1,2.3-0.2,3.4c-0.4,5.5-5.1,8.1-9.9,5.6c-2.7-1.4-5.5-2.8-8.5-3.8
		c-1.5-0.5-3.4-0.1-5.9-0.1c3,4.3,5.3,7.6,7.8,11.1c-6.4,5.9-12.6,11.7-17.7,16.4C74.6,61.3,68.4,55.5,62,49.7
		c1.2-1.7,2.5-3.4,3.7-5c1.2-1.7,2.3-3.4,3.9-5.8c-2.3,0-4.1-0.4-5.6,0.1c-3.3,1.2-6.5,2.7-9.6,4.4c-2.4,1.3-4.4,1.8-6-0.9
		c-1.6-2.8-2.9-5.7-4.5-9.1c-9-1.1-15.6,5.7-13,14.7c0.4,0.1,0.9,0.1,1.3,0.2c8.2,0.3,10.5,4.3,6.8,11.3c-0.8,1.6-1.8,3.1-2.3,4.8
		c-0.7,2.3-0.9,4.8-1.4,7.1c0.4,0.1,0.9,0.3,1.3,0.4c3.5-2.4,6.9-4.8,10.8-7.4c5.9,6.4,11.6,12.7,18.2,20
		c-3.6,3.3-7.7,7.8-12.5,11.4c-7.6,5.7-7.6,14-9,22.6c3-0.5,5.5-1.2,8.1-1.4c5.4-0.5,9.8-2.5,13.3-6.8
		C69.7,105.4,74.2,100.7,78.6,95.9z"></path>
</g>
</svg>