<svg version="1.1" id="Layer_1" xmlns="http://www.w3.org/2000/svg" xmlns:xlink="http://www.w3.org/1999/xlink" x="0px" y="0px" viewBox="0 0 160 160" style="enable-background:new 0 0 160 160;" xml:space="preserve" fill="white">
<g>
	<path d="M75.4,157.9c-4.7-13.3-9.5-26.6-14-40c-1.2-3.7-3.3-5.9-6.7-7.6c-8.4-4.1-16.6-8.6-24.8-12.9c-1.4-0.7-2.7-1.5-4.9-2.7
		c9-4.7,17-9.4,25.5-13.2c6.7-3,10.5-7.3,12.6-14.4c3.6-12,8.2-23.6,12.7-36.6c1,2.4,1.7,3.8,2.2,5.2c4.3,12.1,8.7,24.2,12.8,36.4
		c1.1,3.3,3,5.4,6.1,6.9c8.5,4.2,16.9,8.7,25.3,13.1c1.4,0.7,2.7,1.5,4.9,2.7c-8.9,4.6-16.7,9.4-25.1,12.9c-7.1,3-11,7.8-13.2,15.1
		c-3.6,11.8-8,23.3-12.1,35C76.2,158,75.8,157.9,75.4,157.9z"></path>
	<path d="M140.6,30.1c-13.9,4.6-19.9,14.5-22.4,27.2c-0.1,0.6-0.5,1.1-1.2,2.5c-2-5.7-4-10.7-5.5-15.8c-1.2-4-3.4-6.6-7.2-8.3
		c-3.4-1.4-6.5-3.4-10.8-5.6c4.8-2.5,8.9-4.4,12.7-6.8c1.9-1.2,3.6-3.1,4.5-5.1c2.3-5.6,4.1-11.4,6.5-18.2
		c2.2,6.1,4.2,11.2,5.7,16.4c1.1,3.9,3.2,6.3,6.9,7.9C133.2,25.8,136.5,27.9,140.6,30.1z"></path>
	<path d="M31,71c-2.9-9.7-5.8-18.8-17.8-21.7c12.2-2.6,14.7-12.2,17.9-21.6c2.9,9.7,5.8,18.8,17.8,21.7C36.7,52.1,34.2,61.6,31,71z"></path>
</g>
</svg>